<?xml version="1.0" encoding="UTF-8"?>
<svg id="Capa_1" data-name="Capa 1" xmlns="http://www.w3.org/2000/svg" viewBox="0 0 1080 1080">
  <defs>
    <style>
      .cls-1 {
        fill: #e62d3d;
        stroke-width: 0px;
      }
    </style>
  </defs>
  <g id="Md0HjG.tif">
    <g>
      <path class="cls-1" d="M309.79,896.39c2.26,10.78,3.84,18.27,5.39,25.76,2.57,12.48-1.19,18.64-13.56,21.34-34.97,7.63-69.96,15.16-104.97,22.61-10.96,2.33-17.11-2.01-19.57-13.69-14.22-67.44-28.38-134.9-42.55-202.35-6.81-32.42-13.59-64.86-20.37-97.29-2.53-12.09.98-17.98,13.01-20.64,34.66-7.66,69.33-15.23,104.06-22.59,12.63-2.68,18.19,1.19,21.01,13.77,2.77,12.35,5.37,24.73,7.91,36.47,16.3-7.4,31.55-16.04,47.88-21.43,49.42-16.33,97.46-11.41,143.5,12.78,24.62,12.94,49.22,25.91,73.67,39.18,15.04,8.16,29.73,8.27,44.89.42,34.94-18.1,70-35.96,104.99-53.94,40.74-20.93,75.92-14.35,106.42,20.46,2.61-1.2,5.51-2.4,8.3-3.82,27.94-14.23,55.69-28.88,83.85-42.66,28.21-13.8,60.94-6.66,80.67,16.69,19.27,22.81,15.7,50.74-9.09,67.44-63.58,42.85-127.31,85.47-190.98,128.19-27.78,18.64-55.93,36.75-83.24,56.07-37.57,26.58-78.63,34.42-123.87,28.51-56.06-7.32-112.27-14.06-168.62-18.23-22.18-1.64-44.93,4.3-68.73,6.93ZM304.34,870.35c4.7-.94,8.72-1.7,12.72-2.56,20.82-4.52,41.53-9.92,63.17-7.55,56.2,6.18,112.52,11.46,168.56,18.88,39.81,5.27,75.64-1.22,108.54-24.98,23.74-17.15,48.54-32.84,72.88-49.17,65.88-44.21,131.78-88.39,197.64-132.62,12.52-8.41,13.39-17.71,2.87-28.45-11.95-12.2-29.7-15.22-45.85-7.09-29.33,14.76-58.54,29.78-87.6,45.05-2.78,1.46-5.54,5.34-6,8.44-2.14,14.54-9.39,25.37-21.85,32.77-53.18,31.57-106.25,63.36-159.68,94.51-31.59,18.42-66.06,24.74-101.9,17.62-34.78-6.91-69.14-15.97-103.68-24.12-15.72-3.71-31.43-7.49-47.6-11.34,2.34-9.62,4.42-18.13,6.65-27.29,3.2.61,5.77,1.01,8.29,1.61,44.31,10.57,88.56,21.37,132.92,31.69,31.86,7.41,62.6,3.72,90.97-12.82,52.92-30.86,105.5-62.29,158.16-93.58,11.01-6.54,12.43-14.7,4.9-25.23-14.67-20.53-41.15-26.73-64.97-14.67-36.68,18.58-73.25,37.39-109.75,56.32-24.54,12.73-48.61,12.47-72.9-.8-23.88-13.05-47.91-25.86-72.14-38.26-57.14-29.23-112.21-25.17-165.29,10.74-5.45,3.68-6.24,7.37-4.96,13.25,6.59,30.35,12.84,60.78,19.25,91.17,5.48,25.98,11.03,51.95,16.66,78.47ZM226.64,639.72c-27.87,6.03-54.67,11.84-82.37,17.83,19.49,92.88,38.79,184.83,58.33,277.92,27.63-5.93,54.58-11.72,82.43-17.7-19.55-93.09-38.86-185.08-58.39-278.06Z"/>
      <path class="cls-1" d="M936.19,163.82c-17.99,18.02-35.98,36.05-53.98,54.06-29.11,29.12-58.22,58.26-87.37,87.34-9.98,9.96-16.47,9.96-26.41.04-35.85-35.79-71.65-71.64-107.49-107.45-2.26-2.26-4.64-4.39-7.33-6.93-2.72,2.57-5.09,4.71-7.34,6.97-49.66,49.64-99.3,99.3-148.96,148.94-11.52,11.52-17.25,11.46-28.95-.25-28.04-28.05-56.07-56.12-84.52-84.6-63.13,63.15-125.85,125.88-188.91,188.96-6.95-7.57-12.92-14.08-19.56-21.33,1.45-1.53,3.54-3.86,5.75-6.08,62.63-62.65,125.26-125.29,187.9-187.92,11.54-11.54,17.26-11.51,28.94.17,28.06,28.04,56.09,56.11,84.8,84.84,2.63-2.5,4.96-4.63,7.18-6.85,49.66-49.64,99.3-99.29,148.95-148.94,11.97-11.97,17.46-11.96,29.57.14,35.2,35.18,70.42,70.36,105.54,105.62,2.27,2.28,3.82,5.26,5.09,7.04,46.17-46.14,90.87-90.82,135.41-135.35h-32.72v-28.9c14.59,0,29.28,0,43.98,0,8.59,0,17.19-.18,25.77.08,8.68.26,14.63,5.22,14.75,13.42.37,23.63.13,47.27.13,71.4h-28.05v-33.73c-.73-.23-1.45-.46-2.18-.69Z"/>
      <path class="cls-1" d="M753.12,476.09c0-34.04-.02-68.07,0-102.11.01-14.06,4.66-18.8,18.43-18.84,16.57-.05,33.15-.09,49.72.01,12.12.07,17.19,5.16,17.2,17.39.05,68.96.05,137.92,0,206.88,0,12.25-5.1,17.43-17.1,17.51-17.17.11-34.33.12-51.5,0-11.54-.09-16.71-5.3-16.74-16.96-.09-34.63-.03-69.26-.03-103.88ZM782.22,384.07v183.67h27.35v-183.67h-27.35Z"/>
      <path class="cls-1" d="M582.52,490.1c0,29.59.04,59.19-.02,88.78-.03,13.2-4.96,18.02-18.34,18.07-16.57.05-33.14.09-49.72-.01-12.18-.07-17.28-5.12-17.29-17.3-.06-59.48-.06-118.97,0-178.45.01-12.67,5.03-17.55,17.87-17.6,16.87-.07,33.74-.1,50.6.02,11.59.08,16.82,5.24,16.86,16.83.1,29.89.03,59.78.04,89.67ZM553.7,412.8h-27.63v155.1h27.63v-155.1Z"/>
      <path class="cls-1" d="M710.51,512.52c0,22.19.05,44.38-.02,66.57-.04,12.79-4.99,17.79-17.65,17.85-16.86.08-33.73.1-50.59,0-12.02-.08-17.09-5.23-17.11-17.48-.06-45.27-.06-90.54,0-135.8.02-12.24,5.07-17.31,17.18-17.39,17.16-.1,34.32-.12,51.48,0,11.5.09,16.62,5.31,16.67,17.01.1,23.08.03,46.16.03,69.23ZM681.64,455.23h-27.49v112.59h27.49v-112.59Z"/>
      <path class="cls-1" d="M454.52,540.07c0,13.31.1,26.62-.03,39.93-.11,11.62-5.24,16.84-16.76,16.93-17.45.13-34.9.15-52.35-.01-10.93-.1-16.17-5.45-16.22-16.55-.12-26.91-.12-53.83,0-80.74.05-11.09,5.29-16.36,16.29-16.46,17.74-.15,35.49-.18,53.23.01,10.39.11,15.65,5.53,15.78,16.08.18,13.6.04,27.21.04,40.81ZM398.26,512.04v55.69h27.29v-55.69h-27.29Z"/>
      <path class="cls-1" d="M211.21,701.27c-9.72,2.02-18.52,3.84-27.97,5.8-1.98-9.53-3.81-18.33-5.76-27.69,9.3-2,17.88-3.85,27.51-5.92,2.01,8.98,3.96,17.72,6.22,27.8Z"/>
    </g>
  </g>
</svg>