<?xml version="1.0" encoding="UTF-8"?>
<svg id="Capa_1" data-name="Capa 1" xmlns="http://www.w3.org/2000/svg" viewBox="0 0 1080 1080">
  <defs>
    <style>
      .cls-1 {
        fill: #e62d3d;
        stroke-width: 0px;
      }
    </style>
  </defs>
  <path class="cls-1" d="M319.13,1016.61v-13.07c0-89.19,0-178.38,0-267.56,0-3.25-.3-6.59.29-9.74,1.33-7.11,5.54-11.73,13.05-12.36,7.47-.62,12.73,2.88,14.76,10.01,1.13,3.97,1.23,8.33,1.23,12.51.06,89.19.05,178.38.05,267.56,0,3.84,0,7.67,0,12.64,9.77,0,18.77-.09,27.78.02,11.42.14,17.93,5.62,17.84,14.79-.09,9.1-6.62,14.48-18.14,14.5-44.59.07-89.18.14-133.77-.02-22.03-.08-36.6-13.53-38.99-35.45-.35-3.22-.44-6.49-.44-9.74-.02-97-.13-194,.02-291,.1-63.56,30.42-107.56,89.39-130.45,32.07-12.45,64.15-24.86,96.23-37.3,19.97-7.75,39.87-15.69,59.94-23.16,5.31-1.97,6.99-4.62,7.52-10.41,1.78-19.34-1.97-34.43-18.51-48.19-20.37-16.95-30.55-41.7-35.45-67.89-1.06-5.66-2.79-7.73-8.85-8.9-47.32-9.12-64.9-62.7-39.77-95.87,2.28-3.01,2.94-7.75,3.14-11.75,1.32-26.61.03-53.56,3.84-79.79,11.11-76.55,77.04-139.04,153.85-148.31,97.5-11.77,184.57,50.46,202.01,146.61,4.65,25.63,2.42,52.49,3.8,78.76.26,4.86,1.64,10.31,4.29,14.3,24.87,37.41,3.72,88.06-40.74,96.08-6.12,1.1-7.87,3.47-8.92,9.05-5.77,30.78-20.63,56.59-44.28,77.06-4.7,4.07-6.76,8.03-6.34,14.11.47,6.8.75,13.74-.05,20.48-1.06,8.84,2.2,12.98,10.61,16.15,51.31,19.36,102.41,39.29,153.55,59.13,57.44,22.28,87.76,65.25,88.89,126.86.56,30.26.14,60.54.06,90.81,0,3.22.44,7.53-1.34,9.44-3.87,4.15-8.72,9.21-13.77,9.98-6.64,1.01-12.33-3.68-13.49-11.29-.58-3.84-.57-7.78-.61-11.68-.32-32.86.35-65.77-1.11-98.58-1.61-36.09-19.95-64.14-51.61-79.59-35.72-17.44-73.7-30.26-111.45-45.39-8.18,16.33-15.87,31.65-23.53,46.99-6.39,12.79-13.3,25.35-18.96,38.45-8.12,18.77-23.98,29.9-47.35,13.46-7.51,8.11-13,16.03-10.78,28.72,14.23,81.26,27.68,162.66,41.67,243.96,1.83,10.61-.82,19.13-7.86,26.83-14.04,15.36-27.98,30.81-42.96,47.32h157.47v-11c0-88.21,0-176.42,0-264.64,0-2.6-.04-5.21.01-7.81.26-12.15,5.76-18.76,15.31-18.45,9.1.3,14.03,6.63,14.03,18.53.04,90.49.02,180.98.02,271.47,0,3.85,0,7.71,0,12.81,11.31,0,21.92,0,32.54,0,13.02,0,26.04.01,39.06,0,13.71-.02,15.45-1.77,15.47-15.88.03-31.9,0-63.8.01-95.7,0-10.42-.16-20.84.07-31.25.25-11.22,5.35-17.23,14.21-17.36,8.83-.13,14.8,5.9,14.85,16.89.24,44.92.68,89.85-.22,134.75-.48,24.02-16.43,37.86-40.54,37.87-127.59.04-255.17.02-382.76.02-1.3,0-2.61.05-3.9-.03-9.84-.62-15.71-6.37-15.46-15.13.23-8.24,6.03-13.93,15.49-14.07,18.21-.28,36.42-.08,56.17-.08-2.12-2.87-3.37-4.89-4.93-6.62-12.65-14.01-25.35-27.97-38.07-41.92-7.04-7.72-9.45-16.34-7.63-26.92,14.06-81.62,27.52-163.35,41.95-244.9,2.21-12.52-5-19.07-10.42-27.88-2.36,1.43-4,2.42-5.64,3.42-15.72,9.6-30.57,5.8-39.1-10.79-13.81-26.87-27.1-54.01-40.63-81.02-1.44-2.87-2.99-5.68-4.94-9.37-3.82,1.42-7.38,2.7-10.91,4.06-27.86,10.73-55.74,21.44-83.57,32.24-44.87,17.41-69.34,51.23-69.58,99.16-.5,98.95-.18,197.9-.13,296.85,0,11.4,2.4,13.63,13.75,13.65,24.02.04,48.05.01,73.29.01ZM428.63,270.39c0,31.27-.02,60.87,0,90.47.04,65.09,43.82,110.76,108.64,113.36,57.33,2.3,108.26-43.95,110.06-101.17,1.13-35.76.48-71.58.44-107.37,0-2.7-.72-6.09-2.42-8-10.98-12.34-22.33-24.36-33.77-36.72-27.77,17.48-56.77,30.35-87.61,38.83-30.84,8.48-62.36,11.96-95.36,10.58ZM691.18,262.06c-.89-19.25-.3-38.49-2.89-57.28-11.92-86.5-97.01-145.11-181.94-125.98-75.96,17.11-131.27,84.71-119.11,185.22,4.92-2.09,11.87-2.81,13.45-6.1,7.22-14.99,19.38-17.5,34.04-16.87,41.26,1.77,80.83-6.2,118.53-22.73,14.51-6.36,28.3-14.43,42.24-22.05,10.35-5.65,21.67-9.3,30.81-.5,16.81,16.18,32.13,33.89,48,51.04,1.05,1.14,2.15,2.94,2.03,4.33-.83,10.07,6.03,10.47,14.84,10.92ZM526.48,697.39c-1.08,5.6-2.22,10.95-3.13,16.33-12.75,75.49-25.38,151-38.4,226.44-1.04,6.01.58,9.59,4.37,13.69,15.46,16.7,30.61,33.67,45.92,50.51,1.44,1.58,3.2,2.88,5.08,4.55,15.95-17.57,31.02-35.05,47.14-51.52,7.01-7.16,8.16-13.95,6.52-23.34-10.54-60.07-20.53-120.23-30.74-180.36-3.19-18.77-6.51-37.51-9.77-56.3h-26.98ZM486.02,494.06c-3.29,17.2-.78,31.2,11.63,42.9,6.32,5.97,11.18,13.48,16.72,20.29,8.31,10.21,16.64,20.41,25.58,31.38,14.96-18.49,28.02-36.84,43.42-52.95,12.17-12.73,12.45-26.54,10.57-42.76-35.92,14.38-71.81,13.7-107.91,1.14ZM655.84,559.71c-13.28-5.11-25.29-9.9-37.46-14.24-1.82-.65-5.32-.01-6.45,1.35-16.96,20.5-33.65,41.22-50.82,62.41,17.4,12.34,34.23,24.29,51.68,36.67,14.46-28.95,28.48-57.01,43.05-86.18ZM423.95,559.76c14.5,29.05,28.58,57.25,43.02,86.17,17.62-12.55,34.37-24.47,51.59-36.73-17.19-21.2-33.68-41.66-50.42-61.92-1.22-1.48-4.6-2.63-6.29-2.02-12.44,4.45-24.7,9.38-37.91,14.51ZM677.71,354.29c18.37-4.46,28.77-17.33,28.01-33.43-.74-15.76-12.08-28.1-28.01-30.02v63.45ZM569.48,651.27c-9.33-6.64-17.43-12.56-25.73-18.17-1.59-1.07-4.69-2-5.91-1.2-9.26,6.14-18.23,12.73-26.17,18.38,6.43,24.57,25,16.05,39.69,17.41,11.51,1.07,11.6-10.21,18.11-16.42ZM398.87,291.84c-16.98,3.29-28.07,16.2-27.56,31.68.52,15.97,11.64,28.38,27.56,30.36v-62.05Z"/>
</svg>