<?xml version="1.0" encoding="UTF-8"?>
<svg id="Capa_1" data-name="Capa 1" xmlns="http://www.w3.org/2000/svg" viewBox="0 0 1080 1080">
  <defs>
    <style>
      .cls-1 {
        fill: #e62d3d;
        stroke-width: 0px;
      }
    </style>
  </defs>
  <path class="cls-1" d="M732.41,285.57c32.9,11.01,42.5,25.26,39.79,59.67-1.94,24.66-16.15,37.91-46.69,42.8,0,19.53.09,39.23-.03,58.93-.12,20.08,1.5,40.42-1.07,60.2-6.06,46.68-34.87,77.81-74.91,98.93-10.86,5.73-12.76,12.09-13.69,23.21-1.52,18.33,5.15,25.77,21.97,34.17,37.49,18.72,78.07,29.2,115.46,47.59,92.49,45.49,145.96,118.88,158.01,221.67,1.61,13.71,2.42,27.55,2.9,41.35.49,14.01-5.57,19.89-19.62,19.89-260.58.03-521.15.03-781.73,0-13.21,0-19.68-5.6-19.54-18.04.78-71.43,18.09-137.39,65.59-192.91,38.36-44.84,87.47-73.63,143.01-90.95,24.48-7.63,45.59-22.03,69.48-29.78,16.85-5.47,21.34-14.13,20.41-31.06-.7-12.8-3.33-19.76-15.48-26.21-39-20.72-66.41-51.54-73.23-96.9-1.65-10.98-.99-22.33-1.03-33.52-.12-28.92-.04-57.84-.04-86.59-30.57-4.89-44.82-18.18-46.7-42.81-2.63-34.56,6.92-48.74,39.81-59.66,1.28-18.21.96-36.51,4.11-54.18,9.76-54.85,41.24-95.08,87.8-124.15,5.22-3.26,7.58-6.44,8.54-12.76,3.96-26.1,28.85-41.05,54.54-34.02,2.87.79,7.52-.37,9.71-2.4,9.45-8.71,20.18-13.31,33.06-13.02,7.24.16,14.5.15,21.74,0,12.86-.27,23.62,4.24,33.06,12.99,2.19,2.03,6.83,3.22,9.7,2.43,25.37-6.93,49.91,7.26,54.28,33.03,1.28,7.55,4.77,11.07,10.53,14.75,45.68,29.13,76.49,69.07,86.07,123.17,3.13,17.68,2.86,35.97,4.16,54.19ZM410.58,688.82c-49.07,16.69-93.92,52.23-116.03,104.98-16.89,40.3-22.91,82.77-25.74,125.9-.92,13.96-1.27,27.96-1.88,42.03h514.13c-1.46-22.57-2.3-44.54-4.43-66.38-3.98-40.77-11.9-80.61-31.37-117.29-23.73-44.73-61.98-71.82-108.2-90.08-4.86,51.91-26.65,76.57-77.77,84.56-20.55,3.21-42,3.11-62.83,1.61-52.67-3.78-82.01-33.54-85.89-85.35ZM414.5,140.1c-34.97,25.52-58.39,57.04-64.31,98.99-2.83,20.07-1.64,40.71-2.24,61.09-.35,11.88-5.82,17.46-17.56,17.75-3.95.1-8.16-.79-11.78.32-3.74,1.15-8.38,3.38-10.07,6.51-8.73,16.15.09,30.59,18.13,30.59,131.41,0,262.83,0,394.24,0,2.96,0,6.61.98,8.74-.38,4.06-2.58,10.01-6.26,10.35-9.93,1.65-17.56,3.26-29.03-20.95-27.11-.98.08-1.98.04-2.96,0-10.55-.48-16.18-6.09-16.45-16.81-.22-8.56-.25-17.13-.02-25.69.59-22.22-1.21-44.02-9.69-64.89-11.69-28.77-30.41-51.72-56.69-70.08-.34,2.47-.6,3.66-.65,4.85-.57,14.29-5.28,20.5-15.63,20.58-10.88.09-16.05-6.71-16.08-21.23-.03-14.16.04-28.32-.05-42.49-.04-6.89-3.24-11.51-10.51-11.65-7.37-.14-10.53,4.7-10.89,11.39-.34,6.24-.04,12.51-.12,18.77-.15,11.62-6.15,18.83-15.61,18.87-9.22.04-15.82-7.52-16.04-18.76-.18-9.22-.01-18.44-.05-27.67-.05-13.62-2.7-16.34-15.96-16.41-5.27-.03-10.54-.03-15.81,0-12.87.07-15.81,2.92-15.89,15.48-.06,10.21.27,20.43-.14,30.63-.39,9.81-7.45,16.8-16.01,16.74-8.85-.07-15.21-6.91-15.51-16.95-.18-5.92-.07-11.86-.05-17.78.03-7.68-1.91-14.37-11.08-14.23-9.23.14-10.61,6.95-10.53,14.6.15,14.49.22,28.99-.03,43.47-.18,10.91-6.44,17.33-16.08,17.23-9.26-.1-15.01-6.27-15.54-16.68-.13-2.49-.26-4.97-.47-9.11ZM353.7,387.5c0,3.56,0,6.46,0,9.36,0,31.61.24,63.21-.08,94.81-.2,20.31,6.19,38.15,18.62,53.86,21.66,27.35,50.79,44.23,84.46,48.26,36.7,4.39,74.1,4.25,111.17,3.73,24.76-.35,48.55-7.92,70.25-20.6,36.13-21.12,58.16-50.33,55.89-94.52-1.1-21.34-.19-42.79-.19-64.19,0-10.1,0-20.2,0-30.71h-340.12ZM442.85,624.84c0,22.17.46,44.17-.13,66.14-.57,21,8.61,35.99,27.48,43.53,35.98,14.37,72.54,14.04,108.47-.54,13.46-5.46,24.12-15.97,24.96-30.7,1.5-26.07.42-52.3.42-78.27-53.81,7.67-107.05,7.77-161.2-.16ZM901.39,961.88c1.45-94.86-67.75-202.5-141.75-220.67,21.9,32.5,35.45,68.02,41.27,105.96,5.81,37.85,9.16,76.08,13.65,114.71h86.83ZM288.31,740.28c-96.07,42.35-142.05,132.36-141.82,221.41h88.6c3.21-77.09,8.37-153.17,53.22-221.41Z"/>
</svg>