<?xml version="1.0" encoding="UTF-8"?>
<svg id="Capa_1" data-name="Capa 1" xmlns="http://www.w3.org/2000/svg" viewBox="0 0 1080 1080">
  <defs>
    <style>
      .cls-1 {
        fill: #e62d3d;
        stroke-width: 0px;
      }
    </style>
  </defs>
  <path class="cls-1" d="M726.73,665.32c31.58,22.01,51.08,50.51,58.2,87.2,2.5,12.9-2.28,19.35-15.41,19.38-47.07.11-94.14.03-141.21.06-12.03,0-14.66,1.86-17.24,13.22-14.48,63.61-28.85,127.24-43.23,190.87-.18.81.05,1.71.12,3.27,3,0,5.92,0,8.84,0,91.18,0,182.36,0,273.55,0,16.41,0,21-3.71,24.76-20.21,12.81-56.11,25.61-112.23,38.33-168.36,3.1-13.69-1.05-18.82-15.09-18.87-20.13-.07-40.26.02-60.39-.04-10.27-.03-16.51-5.11-16.45-13.16.06-8.12,6.22-13.38,16.54-13.45,21.31-.15,42.64-.4,63.94.06,27.04.58,43.99,21.57,38.16,47.87-13.09,59.08-26.62,118.06-40.26,177.01-5.25,22.68-22.25,35.8-45.39,35.81-228.55.03-457.09.04-685.64,0-32.79,0-56.29-25.06-52.94-57.38,5.43-52.33,11.56-104.59,17.6-156.85,1.86-16.12,3.12-32.47,6.86-48.2,7.85-33.05,27.38-58.48,56.03-78.16-2.85-1.51-5.1-2.67-7.33-3.88-34.98-19.03-57.63-47.32-65.14-86.92-1.4-7.4-1.16-14.39,6.39-18.62,9.03-5.06,17.78.8,19.84,12.66,5.75,33.1,24.66,56.36,54.61,70.58,6.46,3.07,14.21,4.75,21.38,4.81,52.69.39,105.39.21,158.09.19,1.45,0,2.91-.25,4.95-.43v-74.52c-6.78-1.78-13.82-2.98-20.39-5.45-38.27-14.39-60.63-41.81-65.96-82.48-.74-5.66-2.35-7.93-8.04-7.46-4.36.36-8.77.07-15.02.07,1.47,9.26,2.04,17.72,4.22,25.74,9.47,34.9,30.26,60.98,62.23,78.1,3.33,1.78,7.03,3.66,9.26,6.51,4.08,5.2,3.82,11.28-.59,16.28-5.01,5.68-11.28,5.57-17.78,2.36-31.7-15.62-55.95-39.09-69.56-71.62-6.84-16.34-9.5-34.48-13.49-51.94-1.04-4.54-1.84-7.61-6.63-10.04-14.98-7.63-22.53-20.51-22.75-37.29-.25-19.23-.28-38.48.01-57.71.23-15.27,6.39-28.39,20.1-35.15,10.33-5.1,8.69-11.98,7.86-20.11-30.49,7.04-52.84,34.12-52.47,64.63.13,10.48-3,16.69-12.37,21.91-30.65,17.1-41.32,48.8-30.01,85.94,1.12,3.67,2.47,7.27,3.42,10.99,1.88,7.39-1.55,14.49-8.22,16.39-7.16,2.04-13.47-.09-16.28-7.08-17.58-43.75-14.17-93.22,29.9-124.49,4.53-3.21,6.6-6.4,7.14-12,3.87-40,27.75-64.44,63.09-79.62,5.14-2.21,10.48-3.95,16.4-6.16,0-22.36-.2-44.83.04-67.28.55-53,31.99-99.28,81.11-117.05,13.9-5.03,29.3-7.9,44.08-8.16,53.86-.95,107.75-.38,161.63-.37,74.64,0,128.89,53.62,129.6,128.18.18,18.94.25,37.89-.1,56.82-.11,5.9,1.87,8.2,7.38,10.82,14.29,6.8,28.93,13.72,41.46,23.19,18.42,13.93,28.5,33.73,30.3,57,.55,7.15,3.29,11.5,9.12,15.69,33.3,23.96,45.73,62.49,34.12,105.77-2.09,7.8-1.94,14.49.82,22.14,24.73,68.5-14.95,124.12-61.22,146.51-1.28.62-2.53,1.29-4.91,2.51ZM755.12,745.17c-10.2-38-47.9-70.95-86.63-72.69-46.37-2.08-92.88-1.28-139.33-1.42-3.16,0-6.76,1.95-9.41,3.97-13.38,10.25-26.69,20.62-39.59,31.46-2.66,2.24-4.76,6.64-4.89,10.13-.53,15.07-.13,30.17-.26,45.26-.09,10.02-5.65,16.24-13.86,15.95-8.03-.28-12.74-6.02-12.79-15.93-.08-15.09.23-30.19-.22-45.26-.1-3.26-1.89-7.45-4.34-9.5-13.15-11-26.63-21.64-40.31-31.98-3.04-2.3-7.36-4.08-11.1-4.1-40.84-.29-81.69-.67-122.52-.05-56,.85-97.97,36.03-105.8,91.62-8.65,61.42-14.47,123.24-21.28,184.91-2.33,21.05,7.64,31.77,28.74,31.77,67.77.02,135.55,0,203.32,0,3.06,0,6.12,0,9.45,0-7.5-31.61,15.8-53.1,41.65-51.98,30.13,1.3,60.36.3,90.55.3,11.49,0,22.97,0,34.38,0,.88-2.69,1.67-4.62,2.13-6.62,10.74-47.49,21.48-94.98,32.14-142.49,4.86-21.67,18.51-33.05,40.62-33.32,14.5-.18,29-.04,43.51-.04,28.39,0,56.77,0,85.84,0ZM328.83,362.55c0,36.67-1.02,73.65.27,110.54,1.44,41.13,32.21,69.25,73.57,69.4,38.48.14,76.96.07,115.43.02,46.11-.06,76.16-29.88,76.26-75.9.12-59.18.07-118.36.01-177.54-.02-25.12-13.01-38.32-38.11-38.59-19.24-.21-38.48-.05-57.72-.05-7.58,0-15.17,0-24.19,0,0,9.99,1.36,19.05-.26,27.54-4.27,22.35-23.91,37-48.67,37.04-6.27.01-9.95,1.48-13.26,7.31-9.76,17.22-24.72,28.72-43.85,33.59-12.48,3.17-25.48,4.36-39.49,6.64ZM533.85,643.7c2.25.23,3.68.51,5.11.51,52.68.02,105.36.06,158.05-.05,4.08,0,8.28-.66,12.23-1.72,50.36-13.56,77.2-69.43,57.14-120.51-4.28-10.9-4.58-20.14-1.07-31.23,11.69-36.94.26-68.51-30.6-85.52-8.75-4.82-11.86-10.67-11.74-20.47.38-31.15-21.76-58.57-52.79-65.71,1.06,6.24-4.36,13.26,4.47,17.72,16.46,8.31,23.91,22.17,23.97,40.29.06,17.16.07,34.32,0,51.48-.12,28.53-16.69,45.21-45.11,45.44-10.59.09-21.19.01-31.65.01-6.59,53.78-36.19,85.16-88,95.46v74.3ZM280.69,211.94c2.78-2.32,3.71-2.99,4.5-3.78,23.05-22.93,51.04-33.08,83.32-32.97,63.01.2,126.02,0,189.04.09,30.62.05,57.25,10.3,79.29,31.84,1.34,1.31,2.91,2.39,4.92,4.02,0-2.4.21-3.89-.03-5.31-7.82-46.54-48.21-81.93-95.14-82.32-56.2-.46-112.42-.17-168.62-.1-18.14.02-35.1,4.85-50.43,14.45-26.55,16.64-41.98,40.6-46.86,74.07ZM642.68,332.53c0-17.93,1.07-35.11-.21-52.11-3.43-45.81-37.88-78.12-83.67-78.42-64.8-.43-129.61-.56-194.41.07-35.77.35-62.15,17.47-77.17,50.09-11.85,25.75-6.11,53.27-7.2,80.04h22.3c0-17.74-.73-34.89.16-51.95,1.59-30.39,25.84-54.55,56.13-55.89,20.68-.91,41.41-.52,62.12-.5,47.93.05,95.87-.13,143.8.52,19.23.26,34.32,9.86,45.49,25.41,7.85,10.92,11.27,23.19,11.08,36.65-.22,15.27-.05,30.54-.05,46.09h21.61ZM417.8,569.61c-.31.55-1.08,1.28-1.08,2.02-.12,25.42-.21,50.84-.11,76.26,0,1.76,1.07,4.1,2.43,5.19,14.01,11.29,28.18,22.37,42.54,33.71,12.69-9.94,24.79-19.87,37.4-29.12,6.12-4.49,8.4-9.48,8.08-17.08-.63-15.05-.19-30.15-.19-45.23v-25.76h-89.06ZM448.21,250.69c-29.47,0-58.1-.55-86.69.19-19.07.5-31.78,13.76-32.67,32.94-.69,14.76-.14,29.57-.31,44.35-.05,4.4,1.5,6.31,6.13,6.49,23.57.89,54.87-13.2,60.18-37.56,1.79-8.2,8.2-10.74,16.43-9.63,5.53.74,11.22,1.18,16.76.78,10.71-.78,19.06-7.22,20-15.76.77-6.93.16-14.01.16-21.79ZM301.46,359.6c-12.58,0-24.66-.32-36.72.11-7.89.28-13.17,6.3-13.28,14.94-.25,19.23-.22,38.46,0,57.69.08,7.19,3.58,13.52,10.94,14.07,12.82.96,25.76.27,39.06.27v-87.08ZM621.61,359.56v87.27c13.11,0,25.79.8,38.26-.46,3.99-.41,10.46-6.14,10.63-9.68,1.04-22.02,1.08-44.13.37-66.18-.21-6.64-6.06-10.74-13.1-10.88-11.78-.24-23.57-.06-36.16-.06ZM545.13,954.49c-42.33,0-83.71-.26-125.08.45-3.58.06-8.83,5.91-10.2,10.08-2.57,7.83,4.49,14.24,14.46,14.26,32.85.08,65.7.03,98.55.03,5.55,0,11.09,0,16.94,0,1.84-8.59,3.49-16.28,5.33-24.83Z"/>
</svg>