<?xml version="1.0" standalone="no"?>
<!DOCTYPE svg PUBLIC "-//W3C//DTD SVG 20010904//EN"
 "http://www.w3.org/TR/2001/REC-SVG-20010904/DTD/svg10.dtd">
<svg version="1.0" xmlns="http://www.w3.org/2000/svg"
 width="256.000000pt" height="256.000000pt" viewBox="0 0 256.000000 256.000000"
 preserveAspectRatio="xMidYMid meet">


<g transform="translate(0.000000,256.000000) scale(0.0900000,-0.090000)"
fill="#e62d3d" stroke="none">
<path  d="M20 2060 c-20 -20 -20 -30 -20 -513 0 -379 3 -497 13 -510 11 -16 32
-17 202 -15 l190 3 16 32 16 32 74 -75 c73 -74 321 -279 489 -404 153 -113
260 -148 350 -115 25 9 68 16 97 15 63 -1 121 25 160 75 24 29 34 35 68 35 54
1 113 29 152 73 17 20 44 39 60 43 86 20 140 78 150 161 4 41 10 52 39 71 41
27 54 28 54 4 0 -10 7 -28 16 -40 15 -21 20 -22 198 -22 164 0 185 2 199 18
15 17 17 67 17 514 0 579 11 528 -116 528 -177 -1 -473 -54 -574 -103 -35 -17
-46 -28 -48 -49 -2 -16 -5 -28 -6 -28 -3 0 -173 69 -326 132 -56 23 -96 32
-157 36 -95 5 -145 -8 -227 -63 l-54 -35 -208 2 -209 3 0 36 c0 22 -8 45 -19
58 -45 49 -212 87 -513 116 -54 5 -65 3 -83 -15z m315 -116 c50 -8 114 -22
144 -30 l54 -15 -7 -46 c-15 -109 -88 -404 -158 -630 l-31 -103 -119 0 -118 0
0 426 0 427 73 -7 c39 -4 113 -14 162 -22z m2120 -504 l0 -425 -115 -3 -115
-2 -75 222 c-41 122 -105 297 -141 388 l-66 165 36 13 c88 31 344 72 436 68
l40 -1 0 -425z m-930 358 c72 -31 181 -75 243 -99 87 -33 117 -50 127 -69 16
-31 101 -260 155 -415 l39 -115 -44 -30 c-24 -16 -47 -30 -51 -30 -4 0 -53 44
-108 98 -56 53 -162 146 -236 206 -74 60 -172 142 -218 183 -45 40 -87 73 -93
73 -5 0 -36 -11 -69 -24 -32 -13 -74 -27 -92 -31 -20 -5 -46 -23 -67 -47 -18
-21 -47 -46 -64 -55 -37 -19 -111 -20 -132 -3 -40 33 7 140 108 247 184 194
265 211 502 111z m-624 -90 c-93 -124 -125 -246 -83 -314 46 -73 183 -92 281
-39 29 16 65 43 80 60 16 19 47 38 84 49 57 19 58 19 82 0 128 -103 404 -335
461 -387 118 -110 149 -172 109 -217 -39 -43 -60 -30 -235 145 -99 100 -172
165 -184 165 -25 0 -56 -28 -56 -51 0 -10 72 -93 161 -184 173 -176 174 -178
109 -205 -16 -7 -42 -9 -56 -6 -16 4 -82 64 -163 147 -80 81 -145 139 -156
139 -25 0 -55 -28 -55 -52 0 -11 57 -77 130 -152 136 -140 142 -150 95 -180
-47 -31 -62 -22 -215 129 -148 147 -176 165 -208 133 -29 -29 -12 -58 104
-177 63 -66 111 -122 106 -125 -19 -12 -119 27 -178 69 -212 151 -445 345
-566 471 l-77 80 38 134 c21 74 54 199 72 278 l34 142 163 0 163 0 -40 -52z"/>
</g>
</svg>
